<svg width="1111" height="50" viewBox="0 0 1111 50" fill="none" xmlns="http://www.w3.org/2000/svg">
<path fill-rule="evenodd" clip-rule="evenodd" d="M22.0156 3H23.4063L23.4446 3.00128C28.3982 3.16644 32.9198 4.95741 36.5085 7.84797C40.0972 4.95741 44.6189 3.16644 49.5725 3.00128L49.6108 3H51.0015L51.0398 3.00128C55.9934 3.16644 60.515 4.95741 64.1037 7.84797C67.6924 4.95741 72.2141 3.16644 77.1677 3.00128L77.206 3H78.5967L78.635 3.00128C83.5886 3.16644 88.1102 4.95741 91.6989 7.84797C95.2876 4.95741 99.8093 3.16644 104.763 3.00128L104.801 3H106.192L106.23 3.00128C118.235 3.40154 127.703 13.351 127.503 25.3591C127.303 37.3672 117.508 46.9956 105.497 46.9956C100.277 46.9956 95.4759 45.1775 91.6989 42.1361C87.922 45.1775 83.121 46.9956 77.9013 46.9956C72.6817 46.9956 67.8807 45.1775 64.1037 42.1361C60.3268 45.1775 55.5258 46.9956 50.3061 46.9956C45.0865 46.9956 40.2855 45.1775 36.5085 42.1361C32.7316 45.1775 27.9306 46.9956 22.7109 46.9956C10.699 46.9956 0.904547 37.3672 0.704291 25.3591C0.504035 13.351 9.97206 3.40154 21.9773 3.00128L22.0156 3ZM39.7933 38.8684C42.7163 41.0845 46.3598 42.3979 50.3061 42.3979C54.2525 42.3979 57.896 41.0845 60.819 38.8684C57.8127 35.1741 55.9801 30.4833 55.8947 25.3591C55.8048 19.9716 57.6612 14.9985 60.8196 11.1162C58.0575 9.02151 54.6456 7.72958 50.9237 7.5977H49.6886C45.9667 7.72958 42.5548 9.02151 39.7927 11.1162C42.9511 14.9985 44.8074 19.9716 44.7176 25.3591C44.6321 30.4833 42.7996 35.1741 39.7933 38.8684ZM36.5085 14.3744C38.834 17.3905 40.1889 21.1852 40.1205 25.2825C40.0557 29.1719 38.7182 32.746 36.5085 35.6108C34.2989 32.746 32.9614 29.1719 32.8965 25.2825C32.8282 21.1852 34.1831 17.3905 36.5085 14.3744ZM33.2244 11.1162C30.066 14.9985 28.2096 19.9716 28.2995 25.3591C28.3849 30.4833 30.2175 35.1741 33.2238 38.8684C30.3008 41.0845 26.6573 42.3979 22.7109 42.3979C13.207 42.3979 5.45974 34.7802 5.30135 25.2825C5.14317 15.7971 12.6124 7.93364 22.0934 7.5977H23.3285C27.0504 7.72958 30.4623 9.02151 33.2244 11.1162ZM64.1037 14.3744C61.7783 17.3905 60.4234 21.1852 60.4918 25.2825C60.5566 29.1719 61.8941 32.746 64.1037 35.6108C66.3134 32.746 67.6509 29.1719 67.7157 25.2825C67.7841 21.1852 66.4292 17.3905 64.1037 14.3744ZM67.3885 38.8684C70.3115 41.0845 73.955 42.3979 77.9013 42.3979C81.8477 42.3979 85.4912 41.0845 88.4142 38.8684C85.4079 35.1741 83.5753 30.4833 83.4899 25.3591C83.4 19.9716 85.2564 14.9985 88.4148 11.1162C85.6527 9.02151 82.2408 7.72958 78.5189 7.5977H77.2838C73.5619 7.72958 70.15 9.02151 67.3879 11.1162C70.5463 14.9985 72.4026 19.9716 72.3128 25.3591C72.2273 30.4833 70.3948 35.1741 67.3885 38.8684ZM91.6989 14.3744C89.3735 17.3905 88.0186 21.1852 88.087 25.2825C88.1518 29.1719 89.4893 32.746 91.6989 35.6108C93.9086 32.746 95.2461 29.1719 95.3109 25.2825C95.3792 21.1852 94.0244 17.3905 91.6989 14.3744ZM94.9837 38.8684C97.9067 41.0845 101.55 42.3979 105.497 42.3979C115 42.3979 122.748 34.7802 122.906 25.2825C123.064 15.7971 115.595 7.93364 106.114 7.5977H104.879C101.157 7.72958 97.7452 9.02151 94.9831 11.1162C98.1415 14.9985 99.9978 19.9716 99.908 25.3591C99.8225 30.4833 97.99 35.1741 94.9837 38.8684Z" fill="#C2C2C2"/>
<path d="M535.809 11.0916V18.2811L532.031 18.2768L532.026 22.9789L535.805 22.98V34.8653C535.805 37.6842 536.35 40.0611 537.9 41.7684C539.557 43.6516 541.986 44.8147 545.244 44.8126C546.735 44.8147 548.34 44.5937 549.334 44.2621L548.284 39.5084C547.508 39.7316 546.182 39.84 545.41 39.8389C544.029 39.84 542.536 39.341 541.822 38.4558C541.159 37.6842 541.047 36.5189 541.047 35.1389L541.052 22.9811H549.336V18.2779H541.052V11.0905L535.809 11.0916ZM447.116 11.0863L447.118 18.2716L455.398 18.2726V22.9758L447.118 22.9737L447.114 35.1326C447.114 36.5147 447.218 37.6768 447.881 38.4474C448.604 39.3358 450.093 39.8326 451.473 39.8316C452.245 39.8316 453.571 39.7263 454.344 39.4979L455.389 44.2547C454.397 44.5874 452.8 44.8063 451.307 44.8084C448.045 44.8074 445.621 43.6474 443.959 41.7642C442.417 40.0547 441.863 37.6779 441.863 34.8568L441.864 22.9747L438.084 22.9726V18.2716H441.864L441.863 11.0853L447.116 11.0863ZM389.659 5.55368L393.528 5.55263L393.52 44.2505L387.998 44.2526L388.004 18.2084L376.681 35.9558H372.815L361.495 18.2074L361.493 44.2474L355.969 44.2495L355.975 5.55158L359.84 5.54842L374.743 29.1611L389.659 5.55368ZM433.338 44.2537H428.096L428.102 5L433.342 5.00211L433.338 44.2537ZM423.274 31.2632C423.274 23.5747 418.027 17.7158 410.799 17.7168C403.455 17.7147 398.142 23.4674 398.142 31.2621C398.142 39.0568 403.995 44.8032 411.562 44.8032C416.865 44.8042 420.563 42.4253 422.503 39.9379L419.077 36.68C417.584 38.3411 415.49 40.22 411.622 40.22C407.094 40.2179 403.5 36.7326 403.227 32.3684L423.216 32.3705C423.274 31.8726 423.274 31.4853 423.274 31.2632ZM403.668 27.9463C404.554 24.5705 407.593 22.3053 410.963 22.3074C414.051 22.3084 417.031 24.6274 417.812 27.9442L403.668 27.9463ZM521.979 20.66C519.601 18.6116 516.785 17.7232 513.853 17.7242C511.424 17.7232 509.278 18.3358 507.503 19.3789C503.588 21.6989 500.822 26.0663 500.822 31.2684C500.822 36.4632 503.526 40.7747 507.448 43.0947C509.212 44.1463 511.648 44.8126 513.966 44.8137C517.052 44.8116 519.868 43.76 521.975 41.8874L521.973 44.2611L527.049 44.2589L527.051 18.28L521.977 18.2811L521.979 20.66ZM521.811 36.1347C520.034 38.5116 517.336 39.8389 514.682 39.8368C509.66 39.8379 506.068 35.9084 506.068 31.2653C506.068 26.7305 509.382 22.6968 514.41 22.6979C517.558 22.6968 520.204 24.3021 521.811 26.3979V36.1347ZM587.078 21.2663C588.347 19.5011 591.051 17.7263 594.865 17.7242C595.415 17.7253 596.298 17.7853 596.904 17.8947L596.298 22.9242C595.692 22.7589 595.08 22.7032 594.255 22.7011C591.545 22.7032 588.679 24.5821 587.24 27.0684L587.238 44.2642H581.994L581.998 18.2811H587.078V21.2663ZM577.28 32.3811C577.338 31.8832 577.34 31.4968 577.338 31.2726C577.338 23.5863 572.091 17.7263 564.859 17.7253C557.516 17.7242 552.211 23.4758 552.213 31.2705C552.209 39.0684 558.059 44.8137 565.628 44.8116C570.929 44.8147 574.629 42.4358 576.56 39.9484L573.141 36.6895C571.65 38.3495 569.547 40.2305 565.686 40.2305C561.16 40.2284 557.564 36.7432 557.292 32.3789L577.28 32.3811ZM557.733 27.9558C558.62 24.58 561.659 22.3168 565.025 22.3189C568.119 22.3158 571.098 24.6379 571.87 27.9547L557.733 27.9558ZM495.418 18.2768L500.826 18.2779L490.276 44.2558H486.628L479.346 26.02L472.057 44.2547H468.407L457.865 18.2747L463.277 18.2758L470.4 36.0211L477.526 18.2758H481.169L488.287 36.0211L495.418 18.2768ZM299.877 5.52632C310.553 5.52632 319.21 14.1874 319.21 24.8779C319.21 35.5674 310.553 44.2305 299.877 44.2305C289.198 44.2305 280.547 35.5674 280.547 24.8779C280.547 14.1874 289.198 5.52632 299.877 5.52632ZM299.877 33.1726C304.453 33.1726 308.164 29.4611 308.164 24.8779C308.164 20.2968 304.453 16.5853 299.877 16.5853C295.3 16.5853 291.595 20.2968 291.595 24.8779C291.595 29.4611 295.3 33.1726 299.877 33.1726ZM335.483 25.7484C333.478 28.3589 331.058 30.9305 328.639 33.3663C324.436 37.6179 319.671 41.3326 314.874 44.2305H328.928C336.204 38.9779 342.631 31.9274 346.823 24.8779C342.631 17.8305 336.204 10.78 328.928 5.52632H314.874C319.671 8.42421 324.436 12.14 328.639 16.3916C331.058 18.8274 333.478 21.3979 335.483 24.0095V24.0168C335.673 24.2537 335.789 24.5484 335.789 24.8747C335.789 25.2 335.673 25.4958 335.483 25.7316V25.7484ZM264.272 25.7484C266.278 28.3589 268.699 30.9305 271.118 33.3663C275.319 37.6179 280.086 41.3326 284.883 44.2305H270.829C263.552 38.9779 257.124 31.9274 252.934 24.8779C257.124 17.8305 263.552 10.78 270.829 5.52632H284.883C280.086 8.42421 275.319 12.14 271.118 16.3916C268.699 18.8274 266.278 21.3979 264.272 24.0095V24.0168C264.083 24.2537 263.968 24.5484 263.968 24.8747C263.968 25.2 264.083 25.4958 264.272 25.7316V25.7484Z" fill="#C2C2C2"/>
<path fill-rule="evenodd" clip-rule="evenodd" d="M727.41 14.0619C726.778 15.3681 726.257 16.7379 725.857 18.1611C725.727 18.6703 725.656 19.2127 725.82 19.8001C726.87 23.5644 732.432 26.2758 737.969 27.6782C746.296 29.7876 755.874 29.6375 757.177 29.5199C772.251 28.1486 773.785 20.5915 773.785 19.3552C773.785 19.3264 773.786 19.2927 773.786 19.2544C773.792 18.9294 773.802 18.2664 773.533 17.3599C772.92 15.4276 772.078 13.599 771.039 11.9033C771.795 13.2224 771.775 13.8168 771.766 14.1009C771.765 14.1285 771.764 14.1532 771.764 14.1753C771.764 19.2085 762.405 22.4948 756.143 24.2064C740.078 28.5997 726.969 22.6138 726.969 16.5442C726.969 15.4774 727.122 14.7281 727.41 14.0619ZM725.257 28.9311C727.914 43.4247 746.15 42.5965 749.293 42.2485C772.234 39.7018 774.209 29.8955 774.51 27.959C774.199 30.5078 773.504 32.9362 772.486 35.1875C769.949 40.4193 756.786 50.9471 735.396 42.1005C731.278 40.3978 728.431 37.564 727.287 35.4967C726.323 33.4454 725.631 31.2412 725.257 28.9311ZM731.354 41.6072C736.718 46.6514 744.964 47.2623 748.75 47.2623C764.785 47.2623 770.511 38.8259 771.806 36.5698C767.628 44.4486 759.346 49.816 749.815 49.816C742.491 49.816 735.906 46.6473 731.354 41.6072ZM752.84 38.7948C747.988 38.9691 739.446 37.2949 734.066 35.0955C729.735 33.3236 725.45 29.8782 724.99 26.5919C724.953 26.0364 724.934 25.4746 724.934 24.9108C724.934 24.2148 724.962 23.525 725.018 22.8442C725.114 26.8092 728.552 31.4294 734.854 33.4184C742.048 35.687 746.466 35.759 756.93 33.4267C774.241 29.5633 774.23 22.0051 774.228 21.0428C774.228 21.0344 774.228 21.0265 774.228 21.0191C774.228 20.6178 774.179 19.8194 773.992 18.9996C774.453 20.8953 774.696 22.8739 774.696 24.9108C774.696 25.5237 774.673 26.136 774.628 26.7414C774.223 29.3213 770.346 38.1694 752.84 38.7948ZM742.581 18.4672C742.444 18.4496 742.315 18.433 742.196 18.4177C734.46 17.4319 728.793 14.4216 728.793 12.1032C728.793 11.7545 728.885 11.4563 729.039 11.1969C730.473 9.02449 732.238 7.08731 734.265 5.46354C732.087 7.27158 732.093 9.17897 732.094 9.47393C732.094 9.47943 732.094 9.48436 732.094 9.48872C732.094 11.7587 735.396 15.3881 744.956 15.3881C750.624 15.3881 755.201 14.2888 758.656 13.1382C764.193 11.2972 766.934 9.04525 766.836 7.3682C766.82 7.10738 766.718 6.68466 766.41 6.34911C767.6 7.41732 768.687 8.59762 769.654 9.87339C770.018 10.4456 770.385 11.4294 770.385 12.1032C770.385 14.5697 767.973 18.361 757.128 19.257C752.002 19.6802 745.447 18.8362 742.581 18.4672ZM749.822 10.3252C741.855 10.5306 735.251 8.56787 735.073 6.07237C735.014 5.24907 735.609 4.43476 736.736 3.71454C740.538 1.36018 745.016 0 749.815 0C754.411 0 758.716 1.2481 762.412 3.42327C763.358 3.97537 763.893 4.61533 763.893 5.32932C763.893 7.82967 757.791 10.1211 749.822 10.3252ZM808.094 32.364L807.994 32.3668C805.469 32.3668 804.19 31.0267 804.19 28.3859V20.6046C804.19 20.4697 804.299 20.3597 804.437 20.3597H808.393C808.655 20.3597 808.866 20.1473 808.866 19.8886V18.161C808.866 17.9016 808.655 17.6899 808.393 17.6899H804.449C804.305 17.6899 804.19 17.5757 804.19 17.4325V13.8577C804.2 13.6045 803.997 13.3831 803.738 13.3713H803.683L801.66 13.5298C801.411 13.5298 801.198 13.7408 801.198 14.0002V17.4443C801.198 17.5799 801.087 17.6899 800.95 17.6899L798.467 17.6885C798.206 17.6885 797.993 17.8988 797.993 18.1576L797.989 19.8969C797.993 20.0249 798.046 20.1425 798.137 20.2276C798.229 20.3147 798.349 20.3618 798.476 20.3597H800.952C801.088 20.3597 801.2 20.4683 801.2 20.6039L801.198 28.9061C801.198 33.363 804.549 34.9522 807.488 34.9522C807.488 34.9522 807.834 34.9584 808.101 34.9315C808.367 34.9072 808.567 34.7211 808.567 34.4631L808.568 32.8317C808.568 32.5736 808.354 32.364 808.094 32.364ZM825.301 33.6523L822.155 30.4013C822.062 30.3252 822.025 30.1702 822.112 30.047C822.116 30.0401 824.51 26.0011 824.51 26.0011C824.564 25.8932 824.569 25.8108 824.569 25.7742C824.569 25.5196 824.361 25.3099 824.105 25.3099L822.348 25.3106C822.17 25.3106 822.016 25.4026 821.93 25.5507L820.409 28.1797C820.339 28.2807 820.188 28.3063 820.078 28.2309L817.621 25.7022C817.583 25.6593 817.565 25.6054 817.565 25.5507C817.565 25.4877 817.591 25.4227 817.642 25.3764L817.674 25.3501C819.062 24.5406 820.644 23.3534 820.644 21.2578C820.644 18.8522 818.918 17.2374 816.354 17.2374C813.838 17.2374 811.931 18.9242 811.931 21.437C811.931 22.5446 812.392 23.6467 813.343 24.8076L813.364 24.8339C813.404 24.8817 813.42 24.9433 813.414 25.0055C813.406 25.0699 813.373 25.1273 813.324 25.1667C811.231 26.3567 810.177 27.9334 810.177 29.8616C810.177 33.132 812.91 34.8436 815.613 34.8436C817.467 34.8436 818.914 34.1317 820.307 32.5294C820.313 32.5239 820.334 32.4955 820.334 32.4955C820.418 32.4132 820.572 32.4132 820.666 32.5072L822.356 34.259C822.357 34.2618 822.4 34.3033 822.4 34.3033C822.49 34.3912 822.607 34.441 822.73 34.441H824.965C825.223 34.441 825.432 34.232 825.432 33.9754C825.432 33.8564 825.382 33.7387 825.301 33.6523ZM816.395 19.6658C817.45 19.6658 818.018 20.395 818.018 21.2834C818.018 22.3246 817.091 22.9272 815.973 23.5499L815.917 23.5775C815.828 23.6267 815.714 23.6073 815.643 23.5319C815.64 23.5277 815.617 23.5063 815.617 23.5063C815.133 22.9729 814.559 22.1281 814.559 21.5158C814.559 20.4753 815.302 19.6658 816.395 19.6658ZM818.65 30.77L818.641 30.7818C817.829 31.7497 816.938 32.3952 815.64 32.3952C814.102 32.3952 812.897 31.2875 812.897 29.8768C812.897 28.6239 813.43 27.8781 815.013 26.924C815.123 26.859 815.247 26.8728 815.324 26.9496L818.626 30.4089C818.686 30.467 818.712 30.5251 818.715 30.5901C818.716 30.5915 818.716 30.5943 818.716 30.5957C818.716 30.6565 818.697 30.7105 818.65 30.77ZM796.546 32.6007C796.559 32.82 796.603 33.3167 796.764 33.7685C796.764 33.7685 796.829 33.9754 796.829 34.0549C796.829 34.3019 796.622 34.5088 796.366 34.5088L794.404 34.5074C794.333 34.5032 794.266 34.4859 794.206 34.4562C794.081 34.3912 793.997 34.2618 793.957 34.1331C793.911 33.9857 793.876 33.7858 793.853 33.516C793.821 33.2171 793.82 32.8739 793.822 32.721C793.822 32.6871 793.794 32.6588 793.759 32.6588C793.74 32.6588 793.721 32.6685 793.709 32.683L793.697 32.6968C792.717 33.8861 790.748 34.8575 788.3 34.8575C785.775 34.8575 783.067 33.2005 783.067 29.9481C783.067 24.414 790.043 23.4765 792.792 23.5775L793.339 23.59C793.471 23.5935 793.583 23.5471 793.583 23.3638L793.583 23.3335C793.586 22.8694 793.602 20.2248 790.143 20.2248C788.889 20.2248 787.657 20.5977 786.614 21.2474C786.614 21.2474 786.468 21.3443 786.471 21.3415C786.263 21.4902 785.974 21.4439 785.825 21.2391C785.825 21.2391 784.779 19.8215 784.768 19.807C784.701 19.7053 784.676 19.5821 784.701 19.4624C784.726 19.349 784.796 19.2376 784.908 19.1629C786.244 18.2711 788.317 17.6747 790.591 17.6747C793.462 17.6747 796.532 19.2217 796.532 23.563L796.53 31.7843C796.53 31.7843 796.538 32.4401 796.546 32.6007ZM789.337 32.2291C791.914 31.8064 793.309 30.1688 793.71 27.3308C793.801 26.6916 793.788 26.466 793.714 26.3539C793.637 26.2336 793.514 26.1713 793.312 26.1485C793.086 26.1201 792.751 26.1014 792.751 26.1014C788.171 25.9042 785.692 27.6996 785.791 29.836C785.877 31.7808 787.522 32.5266 789.337 32.2291ZM834.741 32.364L834.641 32.3668C832.114 32.3668 830.835 31.0267 830.835 28.3859V20.6046C830.835 20.4697 830.947 20.3597 831.082 20.3597H835.039C835.3 20.3597 835.513 20.1473 835.513 19.8886V18.161C835.513 17.9016 835.3 17.6899 835.039 17.6899H831.095C830.951 17.6899 830.835 17.5757 830.835 17.4325V13.8577C830.846 13.6045 830.643 13.3831 830.383 13.3713H830.33C830.328 13.3713 828.305 13.5298 828.305 13.5298C828.056 13.5298 827.843 13.7408 827.843 14.0002V17.4443C827.843 17.5799 827.731 17.6899 827.596 17.6899L825.111 17.6885C824.851 17.6885 824.64 17.8988 824.64 18.1576L824.636 19.8969C824.641 20.0249 824.692 20.1425 824.783 20.2276C824.874 20.3147 824.994 20.3618 825.121 20.3597H827.597C827.733 20.3597 827.844 20.4683 827.844 20.6039V28.9061C827.844 33.363 831.194 34.9522 834.134 34.9522C834.134 34.9522 834.481 34.9584 834.749 34.9315C835.014 34.9072 835.212 34.7211 835.212 34.4631L835.213 32.8317C835.213 32.5736 835.001 32.364 834.741 32.364Z" fill="#C2C2C2"/>
<path fill-rule="evenodd" clip-rule="evenodd" d="M963.934 49.5469H1013.78V0H963.934V49.5469ZM988.118 43.8582C987.933 44.4087 987.195 44.2252 987.195 43.8582L985.533 30.0952H989.779L988.118 43.8582ZM991.256 27.159V29.1776H984.056V27.159H991.256ZM999.01 15.0476C999.01 18.1672 998.271 26.425 989.226 26.058C989.41 23.3054 991.256 20.5528 994.025 19.4517C997.348 17.9837 998.641 15.7816 998.825 15.0476C998.926 14.9472 998.972 14.9017 998.993 14.9112C999.01 14.919 999.01 14.9645 999.01 15.0476ZM994.214 18.0997C992.3 19.0858 989.326 20.6184 988.302 25.324C985.945 20.1342 989.733 16.6245 991.256 15.2127C991.403 15.077 991.528 14.9606 991.625 14.8641C992.548 14.13 993.841 12.4785 994.579 10.8269H994.764C995.133 11.1939 996.61 14.8641 995.871 16.8826C995.701 17.3333 995.062 17.6629 994.214 18.0997ZM990.786 14.5436C989.083 15.9887 984.397 19.9646 987.195 25.691C982.21 22.5714 981.103 19.0847 985.903 13.5795C986.011 13.4361 986.204 13.2086 986.448 12.9203C987.454 11.7331 989.334 9.51495 989.779 7.8908H989.964C990.333 8.44132 991.441 11.7445 991.441 13.763C991.441 13.9465 991.441 13.9465 991.256 14.13C991.156 14.2295 990.993 14.3678 990.786 14.5436ZM983.503 15.4146C981.287 18.5342 980.734 22.7549 985.903 25.8745C977.964 25.8745 977.964 20.0023 979.441 17.4332C980.918 15.0476 982.026 12.8455 982.026 11.928C982.026 11.7445 982.21 11.7445 982.21 11.928C982.58 12.295 983.503 14.3135 983.503 15.0476V15.4146ZM1032.42 10.46H1026.89V38.5365H1032.98V20.5528L1046.64 38.5365H1051.81V10.46H1045.72V27.7096L1032.42 10.46ZM1054.95 10.46L1065.84 27.5261H1065.65V38.5365H1071.93V27.3426L1082.82 10.46H1075.81L1068.98 21.8374L1062.15 10.46H1054.95ZM1085.59 26.6086V10.46H1091.87V26.4251C1091.87 31.0128 1094.08 33.3983 1097.96 33.3983C1101.84 33.3983 1104.05 31.1963 1104.05 26.6086V10.46H1110.33V26.4251C1110.33 34.8664 1105.53 39.0871 1097.96 39.0871C1090.21 39.0871 1085.59 34.8664 1085.59 26.6086Z" fill="#C2C2C2"/>
</svg>
