<svg width="194" height="70" viewBox="0 0 194 70" fill="none" xmlns="http://www.w3.org/2000/svg">
<g clip-path="url(#clip0_3444_12)">
<path d="M98.6467 31.5C100.532 31.5 102.074 32.0548 103.274 33.1644C104.495 34.274 105.105 35.7329 105.105 37.5411V46.9418H100.542V38.4349C100.542 37.5308 100.296 36.8219 99.8035 36.3082C99.3108 35.774 98.6467 35.5068 97.8113 35.5068C97.2544 35.5068 96.7082 35.661 96.1727 35.9692C95.6586 36.2568 95.2623 36.637 94.9838 37.1096V46.9418H90.4533V38.4349C90.4533 37.5514 90.207 36.8425 89.7143 36.3082C89.2217 35.774 88.5898 35.5068 87.8186 35.5068C87.176 35.5068 86.5976 35.661 86.0835 35.9692C85.5694 36.2774 85.1839 36.6884 84.9268 37.2021V46.9418H80.3964V31.8082H84.9268V33.5342C85.9336 32.1781 87.433 31.5 89.4252 31.5C91.4601 31.5 92.9274 32.2089 93.8271 33.6267C94.3626 33.0308 95.0481 32.5274 95.8835 32.1164C96.7403 31.7055 97.6614 31.5 98.6467 31.5Z" fill="#202020"/>
<path d="M119.634 31.8082H124.164V46.9418H119.634V45.1541C119.248 45.7705 118.616 46.274 117.738 46.6644C116.881 47.0548 115.96 47.25 114.975 47.25C112.918 47.25 111.172 46.4897 109.737 44.9692C108.323 43.4281 107.617 41.5582 107.617 39.3596C107.617 37.161 108.323 35.3014 109.737 33.7808C111.172 32.2603 112.918 31.5 114.975 31.5C115.96 31.5 116.881 31.6952 117.738 32.0856C118.616 32.476 119.248 32.9795 119.634 33.5959V31.8082ZM115.971 43.1199C116.742 43.1199 117.459 42.9452 118.123 42.5959C118.787 42.2466 119.291 41.7945 119.634 41.2397V37.5411C119.291 36.9658 118.787 36.5034 118.123 36.1541C117.459 35.7842 116.742 35.5993 115.971 35.5993C114.857 35.5993 113.925 35.9589 113.175 36.6781C112.425 37.3973 112.051 38.2911 112.051 39.3596C112.051 40.4281 112.425 41.3219 113.175 42.0411C113.925 42.7603 114.857 43.1199 115.971 43.1199Z" fill="#202020"/>
<path d="M145.588 31.5C147.473 31.5 149.015 32.0548 150.215 33.1644C151.436 34.274 152.046 35.7329 152.046 37.5411V46.9418H147.484V38.4349C147.484 37.5308 147.237 36.8219 146.745 36.3082C146.252 35.774 145.588 35.5068 144.753 35.5068C144.196 35.5068 143.649 35.661 143.114 35.9692C142.6 36.2568 142.204 36.637 141.925 37.1096V46.9418H137.395V38.4349C137.395 37.5514 137.148 36.8425 136.656 36.3082C136.163 35.774 135.531 35.5068 134.76 35.5068C134.117 35.5068 133.539 35.661 133.025 35.9692C132.511 36.2774 132.125 36.6884 131.868 37.2021V46.9418H127.338V31.8082H131.868V33.5342C132.875 32.1781 134.374 31.5 136.366 31.5C138.401 31.5 139.869 32.2089 140.768 33.6267C141.304 33.0308 141.989 32.5274 142.825 32.1164C143.682 31.7055 144.603 31.5 145.588 31.5Z" fill="#202020"/>
<path d="M162.751 31.5C165.065 31.5 167.003 32.2603 168.567 33.7808C170.152 35.2808 170.945 37.1507 170.945 39.3904C170.945 41.6301 170.152 43.5 168.567 45C167.003 46.5 165.065 47.25 162.751 47.25C160.416 47.25 158.467 46.5 156.903 45C155.34 43.5 154.558 41.6301 154.558 39.3904C154.558 37.1507 155.34 35.2808 156.903 33.7808C158.467 32.2603 160.416 31.5 162.751 31.5ZM165.418 36.7397C164.711 36.0205 163.822 35.661 162.751 35.661C161.68 35.661 160.781 36.0205 160.052 36.7397C159.345 37.4384 158.992 38.3219 158.992 39.3904C158.992 40.4384 159.345 41.3219 160.052 42.0411C160.781 42.7397 161.68 43.089 162.751 43.089C163.822 43.089 164.711 42.7397 165.418 42.0411C166.146 41.3219 166.511 40.4384 166.511 39.3904C166.511 38.3219 166.146 37.4384 165.418 36.7397Z" fill="#202020"/>
<path d="M182.331 31.5C184.323 31.5 185.886 32.1164 187.022 33.3493C188.178 34.5616 188.757 36.2363 188.757 38.3733V46.9418H184.226V39.113C184.226 38.0651 183.948 37.2534 183.391 36.6781C182.855 36.1027 182.116 35.8151 181.174 35.8151C180.553 35.8151 179.953 35.9795 179.374 36.3082C178.796 36.6164 178.346 37.0274 178.025 37.5411V46.9418H173.495V31.8082H178.025V33.5959C178.453 32.9589 179.053 32.4555 179.824 32.0856C180.617 31.6952 181.452 31.5 182.331 31.5Z" fill="#202020"/>
<path fill-rule="evenodd" clip-rule="evenodd" d="M19.9664 23.4922L10.7582 14.2721C-1.94018 26.9868 -1.92757 47.6141 10.7864 60.3445C23.5003 73.0748 44.1011 73.0874 56.7994 60.3727C69.4978 47.6579 69.4852 27.0306 56.7713 14.3003L52.1728 18.9047L33.7563 0.464456L15.3624 18.8821L24.5706 28.1022L33.7676 18.8934L42.9758 28.1135L47.5743 23.5091C55.2027 31.1473 55.2102 43.5237 47.5912 51.1526C39.9722 58.7814 27.6117 58.7738 19.9834 51.1356C12.355 43.4974 12.3474 31.1211 19.9664 23.4922Z" fill="#5528FF"/>
</g>
<defs>
<clipPath id="clip0_3444_12">
<rect width="194" height="70" fill="white"/>
</clipPath>
</defs>
</svg>
